<svg width="40" height="39" viewBox="0 0 40 39" fill="none" xmlns="http://www.w3.org/2000/svg">
<path d="M11.236 9.71296L16.829 2.47202C17.2285 1.93935 17.7029 1.54817 18.2522 1.29848C18.8015 1.04879 19.3758 0.92395 19.975 0.92395C20.5743 0.92395 21.1486 1.04879 21.6979 1.29848C22.2472 1.54817 22.7216 1.93935 23.1211 2.47202L28.7141 9.71296L37.2035 12.5594C38.0691 12.8257 38.7516 13.3168 39.2509 14.0326C39.7503 14.7483 40 15.539 40 16.4046C40 16.8041 39.9417 17.2036 39.8252 17.6031C39.7087 18.0026 39.5173 18.3855 39.2509 18.7517L33.7578 26.5419L33.9576 34.7317C33.9908 35.8969 33.608 36.879 32.809 37.678C32.01 38.477 31.0778 38.8765 30.0125 38.8765C29.9459 38.8765 29.5797 38.8266 28.9139 38.7267L19.975 36.2298L11.0362 38.7267C10.8697 38.7933 10.6866 38.8349 10.4869 38.8515C10.2871 38.8682 10.104 38.8765 9.93758 38.8765C8.87224 38.8765 7.94008 38.477 7.14107 37.678C6.34207 36.879 5.95922 35.8969 5.99251 34.7317L6.19226 26.492L0.749064 18.7517C0.48273 18.3855 0.291303 18.0026 0.174782 17.6031C0.0582605 17.2036 0 16.8041 0 16.4046C0 15.5723 0.241365 14.7983 0.724095 14.0825C1.20682 13.3667 1.88098 12.859 2.74657 12.5594L11.236 9.71296Z" fill="#D4D4D4"/>
</svg>
