<svg width="15" height="16" viewBox="0 0 15 16" fill="none" xmlns="http://www.w3.org/2000/svg">
<mask id="mask0_210_48" style="mask-type:alpha" maskUnits="userSpaceOnUse" x="0" y="0" width="15" height="16">
<rect y="0.959747" width="14.0805" height="14.0805" fill="#D9D9D9"/>
</mask>
<g mask="url(#mask0_210_48)">
<path d="M2.34678 3.30649L3.52015 5.65324H5.28021L4.10684 3.30649H5.28021L6.45359 5.65324H8.21365L7.04028 3.30649H8.21365L9.38703 5.65324H11.1471L9.97372 3.30649H11.7338C12.0565 3.30649 12.3327 3.42138 12.5625 3.65117C12.7923 3.88095 12.9072 4.15719 12.9072 4.47986V11.5201C12.9072 11.8428 12.7923 12.119 12.5625 12.3488C12.3327 12.5786 12.0565 12.6935 11.7338 12.6935H2.34678C2.0241 12.6935 1.74787 12.5786 1.51808 12.3488C1.28829 12.119 1.1734 11.8428 1.1734 11.5201V4.47986C1.1734 4.15719 1.28829 3.88095 1.51808 3.65117C1.74787 3.42138 2.0241 3.30649 2.34678 3.30649ZM2.34678 6.82661V11.5201H11.7338V6.82661H2.34678Z" fill="white"/>
</g>
</svg>
