<svg width="18" height="19" viewBox="0 0 18 19" fill="none" xmlns="http://www.w3.org/2000/svg">
<path d="M0 19V15.5455H18V19H0ZM3.6 12.0909H4.86L11.88 5.37614L10.5975 4.14545L3.6 10.8818V12.0909ZM1.8 13.8182V10.1477L11.88 0.496591C12.045 0.338258 12.2363 0.215909 12.4538 0.129545C12.6713 0.0431818 12.9 0 13.14 0C13.38 0 13.6125 0.0431818 13.8375 0.129545C14.0625 0.215909 14.265 0.345455 14.445 0.518182L15.6825 1.72727C15.8625 1.88561 15.9938 2.07273 16.0763 2.28864C16.1588 2.50455 16.2 2.72765 16.2 2.95795C16.2 3.17386 16.1588 3.38617 16.0763 3.59489C15.9938 3.8036 15.8625 3.99432 15.6825 4.16705L5.625 13.8182H1.8Z" fill="#DB524E"/>
</svg>
