<svg width="22" height="19" viewBox="0 0 22 19" fill="none" xmlns="http://www.w3.org/2000/svg">
<path d="M6.61255 4.4L9.41255 0.775C9.61255 0.508333 9.85005 0.3125 10.125 0.1875C10.4 0.0625 10.6875 0 10.9875 0C11.2875 0 11.575 0.0625 11.85 0.1875C12.125 0.3125 12.3625 0.508333 12.5625 0.775L15.3625 4.4L19.6125 5.825C20.0459 5.95833 20.3875 6.20417 20.6375 6.5625C20.8875 6.92083 21.0125 7.31667 21.0125 7.75C21.0125 7.95 20.9834 8.15 20.925 8.35C20.8667 8.55 20.7709 8.74167 20.6375 8.925L17.8875 12.825L17.9875 16.925C18.0042 17.5083 17.8125 18 17.4125 18.4C17.0126 18.8 16.5459 19 16.0125 19C15.9792 19 15.7959 18.975 15.4625 18.925L10.9875 17.675L6.51255 18.925C6.42922 18.9583 6.33755 18.9792 6.23755 18.9875C6.13755 18.9958 6.04588 19 5.96255 19C5.42922 19 4.96255 18.8 4.56255 18.4C4.16255 18 3.97088 17.5083 3.98755 16.925L4.08755 12.8L1.36255 8.925C1.22922 8.74167 1.13338 8.55 1.07505 8.35C1.01672 8.15 0.987549 7.95 0.987549 7.75C0.987549 7.33333 1.10838 6.94583 1.35005 6.5875C1.59172 6.22917 1.92922 5.975 2.36255 5.825L6.61255 4.4ZM7.83755 6.125L2.98755 7.725L6.08755 12.2L5.98755 16.975L10.9875 15.6L15.9875 17L15.8875 12.2L18.9875 7.775L14.1375 6.125L10.9875 2L7.83755 6.125Z" fill="#428BF9"/>
</svg>
